<?xml version="1.0" encoding="UTF-8" standalone="no"?>
<svg
   id="Layer_1"
   viewBox="0 0 448.91248 96.993904"
   version="1.1"
   sodipodi:docname="logo.svg"
   width="448.91248"
   height="96.993904"
   xmlns:inkscape="http://www.inkscape.org/namespaces/inkscape"
   xmlns:sodipodi="http://sodipodi.sourceforge.net/DTD/sodipodi-0.dtd"
   xmlns="http://www.w3.org/2000/svg"
   xmlns:svg="http://www.w3.org/2000/svg">
  <sodipodi:namedview
     id="namedview87"
     pagecolor="#ffffff"
     bordercolor="#000000"
     borderopacity="0.25"
     inkscape:showpageshadow="2"
     inkscape:pageopacity="0.0"
     inkscape:pagecheckerboard="0"
     inkscape:deskcolor="#d1d1d1" />
  <defs
     id="defs4">
    <style
       id="style1">
      .cls-1 {
        fill: none;
      }

      .cls-2 {
        fill: #231f20;
      }

      .cls-3 {
        clip-path: url(#clippath-1);
      }

      .cls-4 {
        clip-path: url(#clippath-3);
      }

      .cls-5 {
        clip-path: url(#clippath-2);
      }

      .cls-6 {
        clip-path: url(#clippath);
      }
    </style>
    <clipPath
       id="clippath">
      <rect
         class="cls-1"
         width="612"
         height="792"
         id="rect1"
         x="0"
         y="0" />
    </clipPath>
    <clipPath
       id="clippath-1">
      <rect
         class="cls-1"
         width="612"
         height="792"
         id="rect2"
         x="0"
         y="0" />
    </clipPath>
    <clipPath
       id="clippath-2">
      <rect
         class="cls-1"
         x="32.889999"
         y="21.4"
         width="120.37"
         height="97.010002"
         id="rect3" />
    </clipPath>
    <clipPath
       id="clippath-3">
      <rect
         class="cls-1"
         x="32.889999"
         y="21.4"
         width="120.37"
         height="97.010002"
         id="rect4" />
    </clipPath>
  </defs>
  <g
     class="cls-6"
     clip-path="url(#clippath)"
     id="g87"
     transform="translate(-32.907531,-21.416097)">
    <g
       class="cls-3"
       clip-path="url(#clippath-1)"
       id="g31">
      <g
         class="cls-5"
         clip-path="url(#clippath-2)"
         id="g30">
        <g
           class="cls-4"
           clip-path="url(#clippath-3)"
           id="g29">
          <path
             class="cls-2"
             d="m 65.06,24.94 c -7.42,0 -14.85,0 -22.27,0 -0.56,0 -0.89,0.06 -1.08,0.72 -0.38,1.33 -1.49,2.08 -2.77,2.07 -1.28,-0.01 -2.5,-0.87 -2.93,-2.07 -0.45,-1.24 -0.06,-2.59 0.99,-3.44 1.45,-1.16 3.04,-1.06 4.32,0.27 0.29,0.31 0.53,0.65 1.01,0.3 0.1,-0.07 0.28,-0.02 0.42,-0.02 12.87,-0.17 25.73,-0.2 38.6,-0.11 2.44,0.02 4.87,0.08 7.31,0.12 0.32,0 0.58,0.04 0.84,0.3 2.84,2.84 5.68,5.69 8.71,8.33 0.28,0.24 0.54,0.56 0.86,0.68 1.11,0.41 1.27,1.2 1.33,2.3 0.14,2.83 0.1,5.67 0.1,8.5 0,0.73 0.28,1.2 0.83,1.64 3.18,2.57 6.89,4.09 10.68,5.45 6.84,2.45 13.86,4.28 20.92,5.94 4.22,1 7.91,2.84 10.9,6.01 1.58,1.67 2.75,3.59 3.6,5.71 0.22,0.56 0.57,1.3 0.01,1.72 -0.58,0.45 -1.36,0.05 -2.04,-0.1 -0.26,-0.06 -0.42,-0.35 -0.45,-0.58 -0.36,-3.24 -2.86,-4.94 -4.98,-6.91 -2.51,-2.33 -5.65,-3.27 -8.88,-3.94 -7.37,-1.53 -14.56,-3.65 -21.63,-6.19 -3.67,-1.32 -6.97,-3.36 -10.31,-5.32 -0.95,-0.56 -1.13,-1.41 -1.14,-2.39 -0.02,-2.72 -0.08,-5.44 -0.05,-8.16 0.01,-0.93 -0.22,-1.56 -0.98,-2.22 -2.04,-1.79 -3.95,-3.74 -5.91,-5.62 -0.92,-0.88 -1.85,-1.75 -2.74,-2.66 -0.19,-0.19 -0.35,-0.23 -0.58,-0.23 -7.57,0 -15.13,0 -22.7,0 v -0.1 M 40.16,24.58 c -0.02,-0.74 -0.54,-1.29 -1.21,-1.26 -0.72,0.04 -1.38,0.65 -1.36,1.27 0.02,0.56 0.73,1.15 1.38,1.14 0.7,0 1.2,-0.49 1.18,-1.15"
             id="path4" />
          <path
             class="cls-2"
             d="m 72.12,87.43 c -1.56,-0.09 -2.94,-0.12 -4.32,0.04 -0.31,0.04 -0.65,0.12 -0.93,0.03 -1.11,-0.35 -1.84,0.27 -2.56,0.93 -4.73,4.32 -9.25,8.85 -13.49,13.66 -0.79,0.89 -1.67,1.69 -2.52,2.52 -0.23,0.23 -0.45,0.41 -0.25,0.79 0.59,1.1 0.29,2.1 -0.47,2.97 -0.78,0.89 -1.83,1.24 -2.98,1.08 -1.8,-0.25 -2.97,-1.71 -2.72,-3.26 0.32,-1.89 2,-3.08 3.9,-2.7 0.56,0.11 0.85,-0.2 1.17,-0.52 1.64,-1.61 3.06,-3.42 4.65,-5.06 3.78,-3.9 7.45,-7.92 11.64,-11.43 1.42,-1.19 2.72,-1.55 4.54,-1.44 3.73,0.22 7.48,0.11 11.22,0.15 0.37,0 0.63,-0.11 0.9,-0.37 3.17,-3.08 6.31,-6.19 9.53,-9.21 2.18,-2.05 4.26,-4.23 6.73,-5.97 0.54,-0.38 1.09,-0.55 1.73,-0.55 3.6,0.01 7.2,0 10.79,0.04 1.56,0.02 3.11,-0.04 4.67,-0.1 0.39,-0.01 0.69,-0.14 0.98,-0.41 1.08,-0.99 2.31,-0.93 3.32,0.17 0.32,0.35 0.71,0.34 1.09,0.34 1.73,0 3.46,-0.04 5.18,-0.08 1.12,-0.03 1.74,0.82 1.4,1.9 -0.15,0.46 -0.48,0.48 -0.87,0.48 -1.84,-0.02 -3.68,-0.02 -5.53,-0.03 -0.55,0 -0.99,0.1 -1.41,0.57 -0.72,0.82 -1.87,0.82 -2.62,-0.04 -0.5,-0.56 -1.05,-0.68 -1.7,-0.67 -1.67,0.03 -3.34,0.12 -5.01,0.13 -3.37,0.02 -6.74,0.02 -10.12,0 -0.46,0 -0.77,0.16 -1.12,0.45 -4.75,3.99 -9.15,8.37 -13.63,12.66 -0.92,0.88 -1.84,1.77 -2.73,2.68 -0.34,0.34 -0.71,0.41 -1.15,0.34 -1.58,-0.25 -3.17,0.06 -4.75,0.02 -0.37,-0.01 -0.48,0.2 -0.56,0.5 -0.22,0.83 -0.74,1.47 -1.37,2.01 -3.23,2.78 -6.06,5.95 -8.95,9.06 -3.49,3.76 -6.79,7.69 -10.41,11.32 -0.3,0.3 -0.32,0.51 -0.15,0.87 0.77,1.68 0.44,2.91 -1,3.88 -1.15,0.78 -3.1,0.51 -4.14,-0.56 -0.93,-0.97 -0.92,-2.12 -0.46,-3.25 0.43,-1.07 1.26,-1.78 2.49,-1.7 0.89,0.06 1.46,-0.2 2.08,-0.89 4.21,-4.74 8.47,-9.45 12.76,-14.13 1.99,-2.17 4.07,-4.26 6.13,-6.37 0.27,-0.28 0.59,-0.5 1.01,-0.85 m -27.15,17.65 c -0.78,0 -1.24,0.46 -1.24,1.26 0,0.74 0.49,1.29 1.16,1.31 0.78,0.02 1.43,-0.54 1.45,-1.24 0.02,-0.9 -0.41,-1.32 -1.36,-1.33 m 5.52,6.26 c -0.76,-0.01 -1.16,0.36 -1.18,1.1 -0.02,0.72 0.67,1.43 1.38,1.42 0.61,0 1.16,-0.62 1.19,-1.31 0.02,-0.76 -0.48,-1.2 -1.38,-1.22"
             id="path5" />
          <path
             class="cls-2"
             d="m 112.64,116.24 c 0.59,-0.66 1.35,-1.1 1.93,-1.75 1.55,-1.73 1.91,-3.71 1.33,-5.91 -0.14,-0.54 -0.48,-1.03 -0.43,-1.62 0.01,-0.15 -0.08,-0.24 -0.2,-0.34 -1.6,-1.37 -2.9,-3.01 -4.07,-4.75 -0.2,-0.31 -1.65,-0.52 -1.98,-0.33 -0.16,0.1 -0.11,0.23 -0.1,0.37 0.06,0.54 0.22,1.05 0.51,1.51 0.64,1.01 1.32,1.98 2.09,2.89 1.96,2.31 1.5,5.54 -1.06,7.16 -1.04,0.66 -2.15,1.12 -3.43,0.99 -1.4,-0.14 -2.32,-0.85 -2.94,-2.4 2.32,1.29 3.98,-0.36 5.86,-0.85 0.16,-0.04 0.25,-0.11 0.26,-0.28 0.12,-1.43 0.36,-2.85 -0.96,-3.98 -0.76,-0.66 -1.33,-1.53 -1.98,-2.33 -0.59,-0.72 -0.95,-1.54 -0.87,-2.5 0.04,-0.42 -0.04,-0.64 -0.52,-0.6 -2.4,0.2 -4.82,0.02 -7.22,0.22 -1.66,0.14 -3.11,1.13 -4.58,1.89 -0.5,0.26 -0.97,0.79 -1.46,0.81 -0.51,0.02 -0.67,-0.77 -1.06,-1.14 -1.81,-1.75 -3.39,-3.71 -5.29,-5.37 -0.27,-0.23 -0.19,-0.52 -0.2,-0.78 -0.02,-2.78 -0.02,-5.55 -0.03,-8.33 0,-0.91 0.02,-1.81 -0.13,-2.71 -0.15,-0.88 0.97,-2.14 1.85,-2.16 0.36,0 0.5,0.18 0.54,0.51 0.11,0.9 0.31,1.78 0.3,2.7 -0.04,2.97 -0.03,5.95 -0.05,8.92 0,0.29 -0.02,0.54 0.21,0.79 1.33,1.43 2.66,2.86 3.97,4.32 0.34,0.38 0.62,0.42 1,0.12 0.18,-0.14 0.38,-0.24 0.57,-0.36 q 1.31,-0.82 0.22,-2 c -0.36,-0.39 -0.7,-0.84 -1.14,-1.14 -0.77,-0.52 -0.89,-1.24 -0.84,-2.07 0.16,-2.75 0.17,-5.49 -0.06,-8.24 -0.07,-0.84 -0.11,-1.73 -0.4,-2.5 -0.48,-1.28 -0.07,-2.21 0.88,-2.99 0.56,-0.47 0.79,-0.89 0.47,-1.66 -0.43,-1.04 0.14,-2.01 1.39,-2.76 0.95,-0.57 2.16,-0.44 2.89,0.3 1.38,1.4 1.18,3.32 -0.45,4.34 -0.17,0.1 -0.35,0.2 -0.54,0.24 -1.68,0.35 -2.39,1.21 -2.39,2.92 0,2.1 0,4.19 0.3,6.27 0.17,1.22 -0.15,2.43 -0.13,3.65 0,0.44 0.09,0.8 0.39,1.15 0.81,0.95 1.81,1.72 2.53,2.75 0.18,0.26 0.43,0.22 0.69,0.21 4.19,-0.22 8.39,0.02 12.57,-0.3 0.54,-0.04 0.85,0.13 1.21,0.55 1.78,2.09 3.41,4.32 5.72,5.89 0.22,0.15 0.39,0.35 0.45,0.6 0.51,2.27 0.87,4.56 -0.3,6.71 -1.13,2.08 -3.14,2.92 -5.34,3.37 M 96.21,78.8 c -0.66,-0.06 -0.88,0.47 -0.93,1 -0.07,0.73 0.6,0.82 1.09,0.92 0.61,0.12 0.84,-0.38 0.89,-0.88 0.07,-0.67 -0.4,-0.92 -1.05,-1.04"
             id="path6" />
          <path
             class="cls-2"
             d="m 95.36,45.13 c 0,1.41 0,2.83 0,4.25 0,0.38 0.05,0.52 0.57,0.5 2.29,-0.09 4.59,-0.06 6.88,-0.08 0.43,0 0.58,0.16 0.62,0.59 0.12,1.34 0.03,1.55 -1.32,1.59 -2.38,0.07 -4.76,-0.02 -7.14,0.09 -0.87,0.04 -1.34,-0.21 -1.71,-0.93 -0.47,-0.9 -1.31,-1.47 -2.01,-2.17 C 87.3,44.99 83.58,40.8 79.78,36.68 79.37,36.24 78.98,35.84 78.33,35.79 77.62,35.73 77.17,35.24 76.77,34.71 76.4,34.23 75.97,33.97 75.33,34.04 74.74,34.1 74.14,34.07 73.55,34.02 72.64,33.95 72,34.06 71.41,35 c -1,1.6 -3.58,1.47 -4.69,-0.22 -0.55,-0.83 -1.12,-0.96 -2.01,-0.92 -4.61,0.2 -9.23,0.34 -13.85,0.28 -0.93,-0.01 -1.87,-0.07 -2.8,-0.12 -0.44,-0.02 -0.73,0.03 -1,0.5 -0.71,1.22 -2.26,1.67 -3.72,1.2 -1.33,-0.43 -2.25,-1.67 -2.19,-2.98 0.05,-1.21 1.04,-2.47 2.22,-2.84 1.37,-0.43 2.73,-0.1 3.45,1.08 0.51,0.84 1.11,0.99 1.99,1.01 4.7,0.11 9.4,-0.26 14.1,-0.18 0.99,0.02 1.98,-0.02 2.95,0.22 0.41,0.1 0.56,-0.19 0.77,-0.39 0.53,-0.52 1.11,-1 1.84,-1.17 1.16,-0.26 2.21,-0.05 2.93,1 0.25,0.37 0.54,0.5 0.99,0.46 0.68,-0.06 1.36,-0.04 2.04,-0.04 0.97,0 1.86,-0.09 2.67,-0.78 0.77,-0.65 1.74,-0.67 2.61,-0.06 0.6,0.43 1.25,0.62 1.98,0.62 1.22,0 2.44,0.1 3.65,0.04 0.94,-0.04 1.71,0.23 2.43,0.8 1.16,0.92 2.19,1.96 3.18,3.06 1.14,1.26 2.24,2.56 3.59,3.61 0.36,0.28 0.51,0.64 0.56,1.09 0.19,1.61 0.1,3.23 0.25,4.84 m -2.66,2.46 c 0.06,-0.12 0.14,-0.19 0.14,-0.26 0,-2.12 0,-4.25 0,-6.37 0,-0.21 -0.1,-0.36 -0.25,-0.51 -1.97,-1.91 -3.94,-3.82 -5.9,-5.74 -0.51,-0.5 -1.07,-0.76 -1.81,-0.71 -0.99,0.07 -1.98,0.03 -2.97,0.07 -0.32,0.01 -0.73,-0.17 -0.92,0.23 -0.18,0.39 0.08,0.7 0.29,1.01 0.54,0.79 1.36,1.27 2,1.95 2.59,2.77 5.24,5.49 7.66,8.41 0.55,0.66 1.03,1.4 1.78,1.93 M 44.56,33.94 c 0.69,-0.02 1.27,-0.64 1.24,-1.33 -0.03,-0.73 -0.62,-1.24 -1.43,-1.24 -0.7,0 -1.38,0.7 -1.34,1.37 0.03,0.6 0.84,1.23 1.53,1.21 M 67.93,33.1 c -0.02,0.61 0.55,1.22 1.15,1.24 0.56,0.02 1.32,-0.68 1.33,-1.21 0,-0.66 -0.58,-1.33 -1.17,-1.34 -0.67,-0.01 -1.28,0.6 -1.31,1.31 m 9.79,0.04 c -0.05,0.7 0.41,1.05 0.98,1 0.68,-0.06 0.78,-0.76 0.85,-1.29 0.07,-0.55 -0.25,-0.9 -0.86,-0.91 -0.65,0 -0.98,0.39 -0.98,1.2"
             id="path7" />
          <path
             class="cls-2"
             d="m 56.14,81.75 c -0.77,0.05 -1.38,0.09 -1.99,0.12 -0.31,0.02 -0.67,0.14 -0.92,0.02 -0.99,-0.45 -1.61,0.11 -2.22,0.72 -1.5,1.5 -3.03,2.98 -4.5,4.51 -1.27,1.33 -2.79,1.96 -4.61,1.98 -1.12,0.01 -1.15,0.07 -1.13,1.13 0.03,1.59 -1.31,2.86 -3.11,2.93 -1.68,0.07 -3.17,-1.11 -3.31,-2.64 -0.12,-1.34 0.27,-2.5 1.41,-3.25 1.12,-0.74 2.35,-0.8 3.53,-0.1 0.56,0.33 1.05,0.29 1.67,0.16 1.97,-0.4 3.48,-1.47 4.9,-2.84 1.43,-1.38 2.88,-2.73 4.27,-4.14 0.66,-0.67 1.38,-0.98 2.34,-0.92 7.61,0.45 15.24,0.13 22.86,0.39 1.06,0.04 1.89,-0.2 2.7,-1.04 2.96,-3.09 6.07,-6.02 9.02,-9.12 0.23,-0.25 0.42,-0.79 0.91,-0.53 0.46,0.24 0.85,1.64 0.6,1.98 -0.3,0.41 -0.61,0.83 -0.96,1.18 -2.98,2.99 -5.83,6.1 -8.9,9 -0.53,0.49 -1.03,0.66 -1.72,0.65 -5.64,-0.02 -11.28,0 -16.92,0 -0.69,0 -1.29,0.02 -1.53,0.83 -0.07,0.22 -0.29,0.42 -0.48,0.58 -4.01,3.48 -7.48,7.49 -11.28,11.18 -0.89,0.87 -1.75,1.78 -2.75,2.53 -0.34,0.25 -0.48,0.45 -0.33,0.89 0.51,1.43 -0.18,2.47 -1.23,3.32 -0.95,0.77 -2.6,0.79 -3.68,0.13 -1.08,-0.66 -1.6,-1.91 -1.34,-3.23 0.23,-1.17 1.4,-2.33 2.53,-2.46 0.42,-0.05 0.89,-0.13 1.26,0.02 0.87,0.33 1.32,-0.13 1.87,-0.66 4.19,-4.02 8.32,-8.1 12.21,-12.42 0.24,-0.27 0.48,-0.53 0.83,-0.92 M 37.6,88.42 c -0.81,0 -1.42,0.64 -1.41,1.46 0.01,0.75 0.63,1.42 1.29,1.42 0.77,0 1.51,-0.81 1.5,-1.64 -0.01,-0.79 -0.53,-1.26 -1.38,-1.24 m 2.95,9.01 c -0.83,0 -1.38,0.58 -1.39,1.47 0,0.65 0.48,1.08 1.23,1.1 0.96,0.02 1.55,-0.53 1.57,-1.48 0.02,-0.69 -0.48,-1.08 -1.41,-1.08"
             id="path8" />
          <path
             class="cls-2"
             d="m 141.18,70.23 c -2.19,0.35 -3.53,-0.89 -4.62,-2.53 -1.33,-1.98 -3.02,-3.66 -4.49,-5.53 -0.29,-0.37 -0.74,-0.21 -1.12,-0.21 -9.35,-0.19 -18.7,-0.29 -28.05,-0.18 -5.44,0.06 -10.88,0.05 -16.32,0.1 -0.54,0 -0.84,-0.15 -1.18,-0.59 -1.09,-1.45 -2.43,-2.68 -3.7,-3.98 -2.86,-2.91 -5.72,-5.82 -8.59,-8.72 -0.7,-0.71 -1.91,-0.7 -2.58,0.02 -0.96,1.03 -1.9,1.3 -2.94,0.86 -1.11,-0.48 -1.88,-1.68 -1.82,-2.82 0.06,-1.09 0.89,-2.08 2.05,-2.45 1.1,-0.35 2.15,-0.02 2.84,1.11 0.44,0.73 0.96,0.88 1.67,0.7 0.86,-0.22 1.47,0.06 2.11,0.68 4.06,3.88 7.83,8.04 11.81,11.99 0.65,0.65 1.23,0.86 2.1,0.86 13.32,-0.03 26.64,-0.03 39.96,-0.02 1.53,0 3.06,0.12 4.59,0.16 0.35,0.01 0.56,0.13 0.73,0.44 1.01,1.8 2.4,3.28 3.86,4.71 0.55,0.53 1.13,1.04 1.65,1.59 0.65,0.69 1.38,1.24 2.26,1.62 0.62,0.27 1.22,0.59 1.51,1.28 0.24,0.58 0.2,0.94 -0.54,0.92 -0.4,0 -0.79,0 -1.19,0 M 69.54,46.68 c 0,-0.72 -0.42,-1.17 -1.05,-1.14 -0.67,0.02 -1.05,0.41 -1.09,1.05 -0.04,0.55 0.68,1.29 1.16,1.29 0.46,0 1,-0.64 0.99,-1.2"
             id="path9" />
          <path
             class="cls-2"
             d="m 148.46,85.61 c 0.2,-0.9 0.54,-1.67 0.72,-2.49 0.46,-2.13 -0.33,-3.71 -1.88,-5.11 -2.29,-2.08 -5.13,-2.76 -8.02,-3.37 -1.08,-0.22 -2.17,-0.38 -3.27,-0.49 -0.82,-0.08 -1.35,-0.41 -1.87,-1.09 -1.68,-2.21 -3.68,-4.14 -5.59,-6.16 -0.28,-0.3 -0.6,-0.25 -0.93,-0.26 -9.26,-0.15 -18.53,-0.14 -27.79,-0.01 -0.82,0.01 -1.64,-0.03 -2.47,-0.02 -0.58,0.01 -0.98,-0.14 -1.04,-0.8 -0.02,-0.19 -0.1,-0.39 -0.19,-0.56 -0.35,-0.65 -0.07,-0.83 0.57,-0.83 3.06,-0.01 6.12,0.02 9.18,-0.07 7.51,-0.22 15.01,0.08 22.52,0.05 0.46,0 0.78,0.12 1.1,0.47 2.09,2.27 4.42,4.32 6.37,6.72 0.15,0.19 0.35,0.26 0.59,0.28 2.68,0.19 5.32,0.72 7.96,1.19 0.45,0.08 0.82,0.06 1.06,-0.42 0.14,-0.27 0.39,-0.49 0.63,-0.68 1.6,-1.29 2.01,-1.2 3.29,-0.09 0.58,0.5 1.12,1.05 1.72,1.52 3.72,2.91 2.36,10.39 -2.3,12.1 -0.1,0.04 -0.2,0.05 -0.37,0.1 m 0.6,-10.34 c 0.3,-0.64 0.06,-1.08 -0.8,-1.49 -0.21,-0.1 -0.41,-0.25 -0.55,0.08 -0.1,0.24 -0.16,0.48 0.14,0.65 0.41,0.24 0.8,0.51 1.2,0.76"
             id="path10" />
          <path
             class="cls-2"
             d="m 97.43,56.78 c -2.25,0.05 -4.85,-0.07 -7.46,0.13 -0.36,0.03 -0.57,-0.14 -0.8,-0.37 -4.16,-4.25 -8.32,-8.5 -12.48,-12.75 -0.04,-0.04 -0.09,-0.07 -0.12,-0.12 -0.72,-1.47 -2.02,-1.5 -3.43,-1.49 -5.69,0.01 -11.39,-0.17 -17.08,-0.02 -0.62,0.02 -1.25,0 -1.87,-0.03 -0.81,-0.05 -1.51,-0.34 -2.04,0.79 -0.53,1.12 -2.51,1.27 -3.94,0.59 -1.23,-0.58 -2.01,-2.08 -1.77,-3.38 0.25,-1.3 1.52,-2.31 2.93,-2.4 1.36,-0.08 2.39,0.44 3.06,1.59 0.31,0.53 0.67,0.64 1.23,0.64 7.36,0.03 14.73,-0.03 22.09,0.15 0.5,0.01 0.79,0.19 1.13,0.55 2.1,2.23 4.22,4.42 6.37,6.6 2.26,2.3 4.55,4.58 6.83,6.87 0.22,0.21 0.39,0.45 0.77,0.43 4.78,-0.18 9.57,-0.14 14.35,0.01 0.62,0.02 1.12,0 1.64,-0.56 0.69,-0.74 1.63,-1.25 2.75,-0.7 1.06,0.51 1.7,1.56 1.62,2.66 -0.08,1.01 -0.91,2.02 -1.99,2.3 -1.02,0.26 -1.84,-0.23 -2.47,-0.96 -0.34,-0.4 -0.68,-0.51 -1.16,-0.51 -2.61,0.01 -5.21,0 -8.18,0 M 49.85,41.92 c 0.63,0.01 1.27,-0.66 1.29,-1.33 0.01,-0.69 -0.7,-1.41 -1.42,-1.42 -0.69,-0.01 -1.39,0.65 -1.4,1.32 0,0.68 0.79,1.42 1.53,1.43 m 59.91,13.72 c -0.03,-0.62 -0.36,-1.02 -1.03,-1.05 -0.69,-0.03 -1.02,0.39 -1.08,1.02 -0.05,0.51 0.59,1.15 1.15,1.13 0.65,-0.02 0.89,-0.49 0.96,-1.11"
             id="path11" />
          <path
             class="cls-2"
             d="m 71.24,76.66 c -2.82,0.11 -5.39,-0.16 -7.96,-0.2 -2.49,-0.04 -4.98,0.2 -7.46,0.27 -3.6,0.09 -6.73,1.84 -10.13,2.58 -1.71,0.37 -3.42,0.76 -5.16,0.96 -0.65,0.08 -1.02,0.24 -1.32,0.98 -0.57,1.44 -3.02,2.47 -4.8,1.24 -1.59,-1.1 -1.97,-2.83 -0.89,-4.24 1.18,-1.55 3.38,-1.93 4.69,-0.69 0.74,0.7 1.37,0.78 2.32,0.53 4.81,-1.26 9.62,-2.5 14.46,-3.64 5.08,-1.2 10.25,-2.02 15.3,-3.38 0.24,-0.07 0.51,-0.22 0.7,0.05 0.16,0.23 0.01,0.49 -0.07,0.73 -0.23,0.65 -0.72,1.07 -1.22,1.5 -0.24,0.21 -0.55,0.41 -0.44,0.75 0.11,0.34 0.48,0.22 0.75,0.23 1.22,0.04 2.44,0.04 3.65,0.09 0.58,0.03 1.03,-0.15 1.42,-0.6 1.24,-1.4 2.5,-2.78 3.94,-3.98 0.76,-0.64 1.63,-0.86 2.58,-0.96 0.59,-0.06 0.63,0.22 0.43,0.65 -0.26,0.57 -0.64,1.08 -1.08,1.52 -1.77,1.8 -3.56,3.57 -5.33,5.37 -0.23,0.24 -0.49,0.25 -0.77,0.25 -1.28,0 -2.55,0 -3.59,0 m -35.07,1.72 c -0.63,0 -1.31,0.73 -1.31,1.41 0,0.55 0.79,1.21 1.44,1.15 0.66,-0.07 1.09,-0.44 1.12,-1.14 0.03,-0.75 -0.58,-1.42 -1.25,-1.42"
             id="path12" />
          <path
             class="cls-2"
             d="m 107.2,83.57 c 0,1.38 0.02,2.62 -0.01,3.87 -0.01,0.52 0.15,0.9 0.48,1.3 0.96,1.15 2.31,1.81 3.42,2.78 0.42,0.37 1.03,0.3 1.56,0.26 2.37,-0.17 4.74,-0.4 7.11,-0.54 2.68,-0.17 5.38,-0.21 8.05,-0.56 0.49,-0.06 0.77,0.31 1.07,0.6 0.7,0.68 1.37,1.31 2.47,1.28 0.56,-0.02 0.95,0.46 1.28,0.9 1.34,1.74 2.27,5.58 0.28,8.2 -0.19,0.24 -0.35,0.52 -0.76,0.59 0.73,-2.65 -0.43,-4.8 -1.73,-6.92 -0.2,-0.32 -0.56,-0.47 -0.87,-0.66 -0.64,-0.4 -1.39,-0.66 -1.84,-1.32 -0.19,-0.27 -0.45,-0.17 -0.69,-0.17 -1.33,-0.01 -2.65,0.29 -4.09,0.17 0.28,0.79 0.86,1.17 1.46,1.49 1.34,0.69 2.61,1.47 3.73,2.49 1.19,1.09 1.35,3.99 0.32,5.26 -1.07,1.32 -2.45,2.07 -4.06,2.44 -1.08,0.24 -1.98,-0.23 -2.79,-0.9 -0.11,-0.09 -0.21,-0.21 -0.17,-0.36 0.06,-0.23 0.27,-0.17 0.42,-0.15 2.64,0.37 3.85,-1.43 5.04,-3.28 0.15,-0.24 0.18,-0.43 -0.03,-0.68 -0.89,-1.08 -1.83,-2.04 -3.25,-2.47 -1.46,-0.45 -2.61,-1.36 -3.15,-2.86 -0.19,-0.54 -0.57,-0.46 -0.96,-0.43 -1.89,0.16 -3.78,0.34 -5.68,0.35 -1.19,0 -2.38,0 -3.57,-0.01 -0.71,0 -1.22,-0.31 -1.57,-0.95 -0.87,-1.59 -2.11,-2.87 -3.48,-4.02 -0.24,-0.2 -0.47,-0.35 -0.43,-0.75 0.1,-1.04 0.14,-2.09 0.19,-3.14 0.03,-0.64 0.26,-1.05 0.96,-1.19 0.37,-0.07 0.7,-0.33 1.27,-0.61"
             id="path13" />
          <path
             class="cls-2"
             d="m 136.61,77.27 c -3.98,-0.75 -7.73,-1.06 -11.5,-0.41 -1.8,0.31 -3.54,0.92 -5.03,1.92 -2.83,1.91 -5.99,2.38 -9.27,2.49 -1.66,0.05 -3.31,0.35 -4.99,0.25 -0.17,0 -0.37,0.14 -0.51,0.27 -1.38,1.26 -2.74,2.54 -4.12,3.8 -0.16,0.15 -0.21,0.3 -0.2,0.52 0.06,2.24 -0.2,4.47 -0.29,6.7 -0.05,1.21 0.16,2.29 1.03,3.21 0.32,0.33 0.75,0.8 0.37,1.26 -0.42,0.51 -1.06,0.48 -1.64,0.19 -0.66,-0.33 -1.28,-0.72 -1.95,-1.04 -0.42,-0.2 -0.47,-0.52 -0.46,-0.91 0.1,-3.4 0.14,-6.79 0.03,-10.19 -0.01,-0.44 0.18,-0.75 0.48,-1.03 1.8,-1.68 3.64,-3.32 5.57,-4.85 0.49,-0.39 1.01,-0.55 1.64,-0.57 2.66,-0.07 5.33,0.05 7.97,-0.32 1.39,-0.19 2.69,-0.59 3.88,-1.37 2,-1.3 4.14,-2.38 6.51,-2.79 3,-0.52 6.05,-0.45 9.04,0.14 1.46,0.29 2.54,1.33 3.44,2.73"
             id="path14" />
          <path
             class="cls-2"
             d="m 120.39,49.55 c -0.66,-0.27 -1.2,-0.51 -1.75,-0.71 -0.34,-0.12 -0.41,-0.38 -0.42,-0.66 -0.09,-2.12 -0.17,-4.25 -0.25,-6.37 -0.01,-0.28 0.12,-0.48 0.31,-0.67 2.79,-2.89 5.44,-5.93 8.46,-8.59 0.77,-0.68 0.94,-1.33 1.03,-2.28 0.11,-1.33 0.04,-2.45 -1.24,-3.17 -0.02,-0.01 -0.05,-0.04 -0.05,-0.06 -0.52,-1.52 -1.72,-1.45 -3,-1.38 -3.82,0.18 -7.64,0.02 -11.47,0.11 -3.7,0.09 -7.42,-0.12 -11.12,-0.23 -0.45,-0.01 -0.99,0.12 -1.32,-0.38 -0.39,-0.6 0.26,-1.13 0.14,-1.73 -0.03,-0.14 0.38,-0.09 0.59,-0.08 3.2,0.04 6.4,0.1 9.6,0.13 5.13,0.05 10.25,0.12 15.38,-0.1 0.39,-0.02 0.72,0.11 1.01,0.36 0.34,0.3 0.65,0.65 1.03,0.88 3.01,1.85 3.01,4.72 2.65,7.72 -0.04,0.35 -0.24,0.57 -0.49,0.76 -2.87,2.11 -5.02,4.98 -7.61,7.38 -1.26,1.17 -1.83,2.29 -1.52,4.07 0.28,1.59 0.06,3.27 0.06,5.01"
             id="path15" />
          <path
             class="cls-2"
             d="M 80.57,64.51 C 79.58,63.2 78.58,62.2 77.59,61.2 c -2.33,-2.36 -4.67,-4.7 -7.01,-7.04 -0.47,-0.47 -0.84,-0.98 -1.08,-1.6 -0.15,-0.38 -0.57,-0.77 0,-1.08 0.47,-0.27 0.92,-0.48 1.51,0.03 2.07,1.77 3.98,3.7 5.86,5.66 2.16,2.24 4.34,4.47 6.5,6.71 0.28,0.29 0.57,0.42 0.96,0.42 0.82,0 1.64,0.04 2.46,0.05 0.35,0 0.57,0.1 0.39,0.5 -0.01,0.03 -0.03,0.05 -0.03,0.08 q -0.39,1.63 -2.07,1.67 c -0.74,0.02 -1.49,0.14 -2.21,0.02 -2.54,-0.42 -5.06,-0.03 -7.58,0.19 -0.46,0.04 -0.73,-0.13 -0.97,-0.5 C 72.8,64.06 70.67,62.38 68.88,60.37 68.6,60.05 68.29,60 67.83,60.13 66.35,60.53 64.77,59.47 64.51,58 c -0.25,-1.39 0.95,-2.86 2.58,-3.16 1.25,-0.23 2.56,0.83 2.67,2.35 0.07,0.94 0.48,1.56 1.11,2.17 1.44,1.41 2.85,2.84 4.24,4.29 0.55,0.57 1.14,0.84 1.95,0.76 1.09,-0.11 2.19,-0.16 3.51,0.11 M 68.35,57.29 c -0.09,-0.46 -0.09,-1.04 -0.89,-1.01 -0.77,0.02 -1.31,0.47 -1.29,1.15 0.02,0.65 0.38,1 1.01,1.02 0.64,0.03 1.16,-0.49 1.17,-1.16"
             id="path16" />
          <path
             class="cls-2"
             d="m 59.31,111.94 c 0.54,0.2 0.79,-0.11 1.14,-0.47 2,-2.09 4,-4.17 6.09,-6.17 0.69,-0.66 0.98,-1.35 0.91,-2.23 -0.07,-0.97 0.22,-1.62 1.07,-2.26 1.19,-0.89 2.15,-2.09 3.24,-3.11 2.77,-2.59 5.39,-5.33 8.05,-8.03 0.57,-0.58 1.25,-1.06 1.91,-1.55 0.32,-0.24 0.73,-0.42 1.1,-0.16 0.4,0.27 0.4,0.72 0.31,1.16 -0.1,0.49 -0.34,0.9 -0.69,1.24 -3.55,3.46 -7.09,6.93 -10.64,10.38 -0.51,0.49 -1.01,1 -1.65,1.31 -0.34,0.16 -0.34,0.42 -0.28,0.71 0.35,1.62 -0.29,2.69 -1.54,3.8 -2.3,2.05 -4.33,4.39 -6.49,6.6 -0.28,0.29 -0.22,0.51 -0.06,0.82 0.87,1.61 0.54,2.95 -0.95,3.95 -1.32,0.89 -3.2,0.52 -4.33,-0.84 -1.04,-1.26 -0.95,-2.89 0.24,-4.05 0.72,-0.7 1.57,-1.08 2.58,-1.1 m 1,3.27 c 0.02,-0.76 -0.55,-1.44 -1.23,-1.45 -0.77,-0.01 -1.41,0.55 -1.43,1.26 -0.02,0.69 0.7,1.49 1.35,1.5 0.66,0 1.29,-0.63 1.31,-1.31"
             id="path17" />
          <path
             class="cls-2"
             d="m 85.71,29.29 c -8.57,0.47 -17.15,-0.11 -25.72,0.17 -0.76,0.02 -1.52,0.14 -2.29,0 -0.47,-0.09 -0.74,0.26 -1.01,0.53 -0.94,0.95 -1.9,0.41 -2.64,-0.34 -0.74,-0.76 -0.72,-1.94 -0.02,-2.67 1.04,-1.09 1.88,-1.13 2.99,-0.1 0.27,0.25 0.53,0.34 0.9,0.33 8.69,-0.16 17.39,0.09 26.08,0.18 0.43,0 0.74,0.12 1.04,0.44 0.34,0.37 0.7,0.74 1.21,0.92 0.19,0.07 0.51,0.12 0.42,0.42 -0.07,0.21 -0.34,0.13 -0.53,0.14 -0.14,0 -0.28,0 -0.42,0 M 56.12,28.2 c -0.02,-0.42 -0.22,-0.66 -0.63,-0.67 -0.43,-0.02 -0.71,0.17 -0.73,0.64 -0.02,0.43 0.21,0.75 0.61,0.79 0.51,0.05 0.61,-0.4 0.74,-0.75"
             id="path18" />
          <path
             class="cls-2"
             d="m 114.43,47.55 c -0.39,-0.12 -0.49,-0.15 -0.6,-0.19 q -1.75,-0.62 -1.73,-2.54 c 0.02,-1.33 0.06,-2.66 0.05,-3.99 0,-0.41 0.17,-0.68 0.43,-0.96 2.4,-2.71 5.08,-5.16 7.54,-7.82 1.12,-1.2 2.23,-2.41 3.35,-3.61 0.4,-0.43 0.87,-0.91 1.45,-0.51 0.62,0.42 0.53,1.14 0.31,1.78 -0.08,0.23 -0.26,0.44 -0.44,0.61 -3.19,2.97 -5.95,6.37 -9.17,9.31 -0.99,0.9 -1.34,1.75 -1.23,3.04 0.14,1.57 0.03,3.16 0.03,4.87"
             id="path19" />
          <path
             class="cls-2"
             d="m 103.52,74.09 c 2.6,-0.03 4.5,-0.17 6.39,0.05 0.54,0.06 0.67,-0.31 0.91,-0.59 0.65,-0.76 1.92,-1.11 2.77,-0.77 0.72,0.29 1.38,1.42 1.35,2.3 -0.03,0.97 -0.7,1.83 -1.64,2.16 -0.75,0.26 -1.45,0.09 -1.97,-0.42 -0.64,-0.63 -1.23,-0.8 -2.16,-0.69 -2.96,0.34 -5.93,0.24 -8.9,0.11 -0.68,-0.03 -1.36,-0.06 -2.04,-0.06 -0.4,0 -0.54,-0.16 -0.58,-0.54 -0.16,-1.35 -0.04,-1.53 1.3,-1.55 1.75,-0.03 3.51,0 4.56,0 m 10.12,0.8 c -0.01,-0.65 -0.3,-0.92 -0.84,-0.92 -0.58,0 -1.09,0.51 -1.05,1.08 0.04,0.58 0.39,1 0.96,0.96 0.67,-0.05 0.85,-0.63 0.93,-1.12"
             id="path20" />
          <path
             class="cls-2"
             d="m 108.42,44.74 c -0.34,-0.98 0.56,-2.14 -0.78,-2.55 -0.59,-0.18 -0.79,0.04 -1.03,0.79 -0.42,-2.14 -0.3,-2.9 1.04,-4.43 2.74,-3.13 5.54,-6.2 8.54,-9.08 0.82,-0.78 1.64,-1.55 2.32,-2.46 0.47,-0.64 1.34,-0.8 1.77,-0.4 0.42,0.39 0.4,1.33 -0.09,1.86 -0.4,0.43 -0.87,0.8 -1.31,1.21 -3.17,2.95 -6.16,6.08 -9.17,9.19 -0.85,0.88 -1.19,1.74 -1.08,2.92 0.08,0.92 0.06,1.86 -0.22,2.97"
             id="path21" />
          <path
             class="cls-2"
             d="m 54.92,52.18 c -1.6,-0.01 -3.23,-1.36 -3.38,-2.8 -0.17,-1.61 1.07,-3.25 2.76,-3.53 1.19,-0.2 2.25,0.19 3.07,1.08 0.34,0.37 0.68,0.5 1.17,0.48 1.78,-0.07 3.56,-0.11 5.35,-0.14 0.75,-0.01 1.44,0.89 1.24,1.61 -0.11,0.39 -0.48,0.37 -0.77,0.39 -0.71,0.04 -1.42,0.05 -2.12,0.03 -1.22,-0.03 -2.43,0.13 -3.64,0.17 -0.49,0.02 -0.51,0.33 -0.63,0.64 -0.5,1.22 -1.79,2.1 -3.04,2.09 m -1.37,-3.53 c -0.01,0.82 0.62,1.47 1.4,1.46 0.65,0 1.34,-0.73 1.33,-1.4 0,-0.71 -0.61,-1.29 -1.37,-1.31 -0.83,-0.02 -1.35,0.45 -1.36,1.24"
             id="path22" />
          <path
             class="cls-2"
             d="m 94.22,67.55 c 0,1.21 -1.28,2.54 -2.52,2.48 -1.86,-0.08 -3.06,-0.81 -3.1,-2.59 -0.03,-1.53 1.39,-3.01 2.85,-3.02 1.31,-0.01 2.76,1.63 2.76,3.13 m -2.45,0.83 c 0.54,-0.01 0.85,-0.42 0.88,-1.02 0.04,-0.72 -0.43,-1.24 -1.07,-1.25 -0.65,-0.01 -1.11,0.25 -1.13,0.96 -0.02,0.64 0.59,1.28 1.33,1.31"
             id="path23" />
          <path
             class="cls-2"
             d="m 101.64,112.6 c -1.39,-2.32 -1.22,-5.05 0.33,-6.72 1.07,-1.16 2.16,-1.1 3.04,0.17 0.26,0.37 0.48,0.76 0.69,1.16 0.3,0.56 0.18,0.99 -0.39,1.35 -0.37,0.23 -0.58,0.26 -0.9,-0.11 -0.57,-0.66 -0.79,-0.61 -1.26,0.11 -0.79,1.19 -1.32,2.48 -1.51,4.04"
             id="path24" />
          <path
             class="cls-2"
             d="m 104.94,31.06 c 0.64,-0.18 0.46,-0.61 0.34,-1.03 -0.23,-0.87 -0.14,-1.03 0.77,-0.97 0.65,0.04 1.13,-0.26 1.65,-0.53 1.19,-0.61 2.56,-0.17 3.11,0.97 0.51,1.07 -0.12,2.65 -1.26,3.13 -0.75,0.32 -1.52,0.22 -1.89,-0.45 -0.57,-1.03 -1.38,-1.21 -2.4,-1.09 -0.11,0.01 -0.22,-0.02 -0.33,-0.03 m 4.54,-0.47 c -0.01,-0.23 -0.09,-0.43 -0.35,-0.48 -0.27,-0.05 -0.44,0.07 -0.46,0.35 -0.02,0.27 0.15,0.41 0.4,0.45 0.24,0.05 0.37,-0.07 0.41,-0.32"
             id="path25" />
          <path
             class="cls-2"
             d="m 147.29,81.07 c -0.03,0.66 -0.41,0.28 -0.6,0.15 -1.65,-1.05 -3.48,-1.7 -5.27,-2.44 -0.23,-0.1 -0.48,-0.16 -0.72,-0.23 -1.4,-0.38 -1.4,-0.38 -0.74,-1.63 0.12,-0.24 0.28,-0.25 0.48,-0.22 2.65,0.34 4.92,1.38 6.54,3.59 0.17,0.23 0.33,0.46 0.32,0.77"
             id="path26" />
          <path
             class="cls-2"
             d="m 120.89,101.08 c -0.99,-0.4 -1.95,-0.57 -2.99,-0.44 -1.19,0.15 -2,-0.37 -2.06,-1.23 -0.06,-0.84 0.92,-1.88 1.9,-1.96 0.83,-0.08 1.5,0.2 1.91,0.97 0.45,0.86 0.68,1.82 1.24,2.66"
             id="path27" />
          <path
             class="cls-2"
             d="m 116.83,56.58 c 0.05,0.55 -0.24,0.82 -0.78,0.83 -0.6,0.02 -1.1,-0.51 -1.12,-1.13 -0.02,-0.57 0.48,-1.04 1.09,-1.04 0.54,0 0.81,0.44 0.82,1.34"
             id="path28" />
          <path
             class="cls-2"
             d="m 106.54,34.59 c -0.02,-0.41 0.19,-0.7 0.54,-0.76 0.28,-0.05 0.6,0.19 0.56,0.48 -0.06,0.43 -0.23,0.96 -0.73,1 -0.36,0.03 -0.26,-0.48 -0.37,-0.73"
             id="path29" />
        </g>
      </g>
    </g>
    <g
       id="g47">
      <path
         class="cls-2"
         d="m 166.9,71.21 1.41,-1.64 c 1.41,1.38 3.33,2.29 5.42,2.29 2.54,0 4.01,-1.21 4.01,-2.91 0,-1.98 -1.44,-2.54 -3.3,-3.33 l -2.68,-1.19 c -1.83,-0.73 -3.98,-2.03 -3.98,-4.77 0,-2.74 2.54,-4.91 6.07,-4.91 2.31,0 4.34,0.93 5.7,2.29 l -1.24,1.52 c -1.21,-1.07 -2.62,-1.72 -4.54,-1.72 -2.14,0 -3.58,1.02 -3.58,2.68 0,1.78 1.72,2.43 3.3,3.05 l 2.6,1.16 c 2.29,0.9 4.09,2.2 4.09,4.94 0,2.93 -2.48,5.28 -6.55,5.28 -2.71,0 -5.05,-1.07 -6.71,-2.74 z"
         id="path31" />
      <path
         class="cls-2"
         d="m 183.63,66.78 c 0,-4.6 3.16,-7.22 6.77,-7.22 3.61,0 6.77,2.62 6.77,7.22 0,4.6 -3.16,7.17 -6.77,7.17 -3.61,0 -6.77,-2.62 -6.77,-7.17 z m 11.14,0 c 0,-3.16 -1.75,-5.28 -4.37,-5.28 -2.62,0 -4.37,2.12 -4.37,5.28 0,3.16 1.75,5.22 4.37,5.22 2.62,0 4.37,-2.09 4.37,-5.22 z"
         id="path32" />
      <path
         class="cls-2"
         d="m 201.82,53.52 h 2.34 v 13.57 h 0.11 l 7.36,-7.19 h 2.68 l -10.16,9.99 v 3.72 h -2.34 V 53.52 Z m 5.28,12.81 1.41,-1.52 6.55,8.8 h -2.6 z"
         id="path33" />
      <path
         class="cls-2"
         d="m 217.47,66.78 c 0,-4.6 3.16,-7.22 6.77,-7.22 3.61,0 6.77,2.62 6.77,7.22 0,4.6 -3.16,7.17 -6.77,7.17 -3.61,0 -6.77,-2.62 -6.77,-7.17 z m 11.15,0 c 0,-3.16 -1.75,-5.28 -4.37,-5.28 -2.62,0 -4.37,2.12 -4.37,5.28 0,3.16 1.75,5.22 4.37,5.22 2.62,0 4.37,-2.09 4.37,-5.22 z"
         id="path34" />
      <path
         class="cls-2"
         d="m 239.65,69.01 v -13.6 h -4.85 v -1.89 h 7.19 v 15.66 c 0,1.97 1.07,2.82 2.71,2.82 0.79,0 1.64,-0.2 2.57,-0.62 l 0.59,1.75 c -1.27,0.54 -2.17,0.82 -3.67,0.82 -2.93,0 -4.54,-1.69 -4.54,-4.94 z"
         id="path35" />
      <path
         class="cls-2"
         d="M 251.52,79.22 252,77.36 c 0.37,0.11 0.82,0.2 1.24,0.2 1.92,0 3.08,-1.21 3.75,-2.91 l 0.4,-1.02 -6.38,-13.74 h 2.37 l 3.33,7.56 c 0.54,1.21 1.13,2.65 1.69,3.98 h 0.11 c 0.48,-1.3 1.02,-2.74 1.47,-3.98 l 2.96,-7.56 h 2.26 l -6.07,14.84 c -1.02,2.71 -2.68,4.77 -5.81,4.77 -0.65,0 -1.33,-0.11 -1.81,-0.28 z"
         id="path36" />
      <path
         class="cls-2"
         d="m 285.37,71.21 1.41,-1.64 c 1.41,1.38 3.33,2.29 5.42,2.29 2.54,0 4.01,-1.21 4.01,-2.91 0,-1.98 -1.44,-2.54 -3.3,-3.33 l -2.68,-1.19 c -1.83,-0.73 -3.98,-2.03 -3.98,-4.77 0,-2.74 2.54,-4.91 6.07,-4.91 2.31,0 4.34,0.93 5.7,2.29 l -1.24,1.52 c -1.21,-1.07 -2.62,-1.72 -4.54,-1.72 -2.14,0 -3.58,1.02 -3.58,2.68 0,1.78 1.72,2.43 3.3,3.05 l 2.6,1.16 c 2.29,0.9 4.09,2.2 4.09,4.94 0,2.93 -2.48,5.28 -6.54,5.28 -2.71,0 -5.05,-1.07 -6.71,-2.74 z"
         id="path37" />
      <path
         class="cls-2"
         d="m 302.29,79.22 0.48,-1.86 c 0.37,0.11 0.82,0.2 1.24,0.2 1.92,0 3.08,-1.21 3.75,-2.91 l 0.4,-1.02 -6.38,-13.74 h 2.37 l 3.33,7.56 c 0.54,1.21 1.13,2.65 1.69,3.98 h 0.11 c 0.48,-1.3 1.02,-2.74 1.47,-3.98 l 2.96,-7.56 h 2.26 l -6.07,14.84 c -1.02,2.71 -2.68,4.77 -5.81,4.77 -0.65,0 -1.33,-0.11 -1.81,-0.28 z"
         id="path38" />
      <path
         class="cls-2"
         d="m 319.33,71.8 1.07,-1.55 c 1.58,1.13 3.44,1.86 5.95,1.86 2.31,0 3.44,-0.96 3.44,-2.12 0,-1.04 -0.54,-1.78 -4.26,-2.54 -3.58,-0.73 -5.36,-1.95 -5.36,-4.01 0,-2.2 1.95,-3.89 5.7,-3.89 2.09,0 4.18,0.82 5.53,1.75 l -1.13,1.5 c -1.27,-0.87 -2.85,-1.44 -4.6,-1.44 -2.31,0 -3.16,0.93 -3.16,1.98 0,1.18 1.18,1.69 4.01,2.29 4.54,0.99 5.64,2.12 5.64,4.23 0,2.23 -2.17,4.09 -6.09,4.09 -2.68,0 -5.08,-0.99 -6.74,-2.14 z"
         id="path39" />
      <path
         class="cls-2"
         d="m 340.06,68.27 v -6.49 h -3.89 v -1.75 l 3.98,-0.14 0.31,-4.4 h 1.95 v 4.4 h 6.71 v 1.89 h -6.71 v 6.52 c 0,2.45 0.82,3.72 3.47,3.72 1.27,0 2.29,-0.25 3.27,-0.62 l 0.51,1.72 c -1.24,0.45 -2.57,0.82 -4.29,0.82 -4.01,0 -5.3,-2.29 -5.3,-5.67 z"
         id="path40" />
      <path
         class="cls-2"
         d="m 353.09,66.72 c 0,-4.46 3.33,-7.17 7,-7.17 3.95,0 6.26,2.57 6.26,6.43 0,0.54 -0.06,1.04 -0.11,1.41 h -11.6 v -1.81 h 10.21 l -0.59,0.65 c 0,-3.24 -1.61,-4.85 -4.12,-4.85 -2.51,0 -4.74,1.92 -4.74,5.33 0,3.41 2.31,5.36 5.36,5.36 1.64,0 2.93,-0.51 4.18,-1.3 l 0.85,1.52 c -1.35,0.9 -3.1,1.64 -5.3,1.64 -4.12,0 -7.39,-2.65 -7.39,-7.22 z"
         id="path41" />
      <path
         class="cls-2"
         d="m 369.73,59.89 h 1.86 l 0.2,1.81 h 0.06 c 0.71,-1.27 1.55,-2.14 3.13,-2.14 1.35,0 2.2,0.79 2.6,2.37 0.79,-1.47 1.64,-2.37 3.22,-2.37 1.92,0 3.05,1.5 3.05,4.23 v 9.82 h -2.31 v -9.65 c 0,-1.58 -0.45,-2.4 -1.47,-2.4 -0.96,0 -1.47,0.71 -2.2,2.12 v 9.93 h -2.14 v -9.65 c 0,-1.58 -0.39,-2.4 -1.41,-2.4 -0.96,0 -1.58,0.71 -2.26,2.12 v 9.93 h -2.31 V 59.9 Z"
         id="path42" />
      <path
         class="cls-2"
         d="m 387.02,71.8 1.07,-1.55 c 1.58,1.13 3.44,1.86 5.95,1.86 2.31,0 3.44,-0.96 3.44,-2.12 0,-1.04 -0.54,-1.78 -4.26,-2.54 -3.58,-0.73 -5.36,-1.95 -5.36,-4.01 0,-2.2 1.95,-3.89 5.7,-3.89 2.09,0 4.18,0.82 5.53,1.75 l -1.13,1.5 c -1.27,-0.87 -2.85,-1.44 -4.6,-1.44 -2.31,0 -3.16,0.93 -3.16,1.98 0,1.18 1.18,1.69 4.01,2.29 4.54,0.99 5.64,2.12 5.64,4.23 0,2.23 -2.17,4.09 -6.09,4.09 -2.68,0 -5.08,-0.99 -6.74,-2.14 z"
         id="path43" />
      <path
         class="cls-2"
         d="m 421.55,71.6 h 4.6 V 57.1 h -4.6 v -2 h 11.57 v 2 h -4.6 v 14.5 h 4.6 v 2 h -11.57 z"
         id="path44" />
      <path
         class="cls-2"
         d="m 438.41,59.89 h 1.92 l 0.2,2.31 h 0.11 c 1.44,-1.5 3.02,-2.65 5.16,-2.65 3.25,0 4.74,1.92 4.74,5.53 v 8.52 h -2.34 v -8.21 c 0,-2.6 -0.9,-3.81 -3.13,-3.81 -1.64,0 -2.74,0.82 -4.32,2.45 v 9.56 h -2.34 V 59.88 Z"
         id="path45" />
      <path
         class="cls-2"
         d="m 454.97,66.78 c 0,-4.6 3.5,-7.22 7.65,-7.22 2.23,0 3.87,0.9 4.99,2 l -1.16,1.5 c -1.13,-0.96 -2.31,-1.55 -3.75,-1.55 -3.16,0 -5.33,2.12 -5.33,5.28 0,3.16 2.14,5.22 5.28,5.22 1.69,0 3.1,-0.76 4.23,-1.72 l 1.04,1.52 c -1.52,1.35 -3.41,2.14 -5.45,2.14 -4.29,0 -7.5,-2.62 -7.5,-7.17 z"
         id="path46" />
      <path
         class="cls-2"
         d="m 475.82,71.55 c 0,-1.41 1.02,-2.4 2.29,-2.4 1.27,0 2.29,0.99 2.29,2.4 0,1.41 -1.02,2.4 -2.29,2.4 -1.27,0 -2.29,-0.96 -2.29,-2.4 z"
         id="path47" />
    </g>
    <g
       id="g65">
      <path
         class="cls-2"
         d="m 167.26,94.58 0.8,-0.98 c 1,0.98 1.93,1.37 3.23,1.37 1.47,0 2.66,-0.78 2.66,-2.17 0,-1.39 -1.1,-2.08 -3.03,-2.08 h -1.25 v -1.08 h 0.91 c 1.98,0 2.79,-0.66 2.79,-1.9 0,-1.17 -0.93,-1.78 -2.22,-1.78 -1.03,0 -1.95,0.41 -2.64,1.05 l -0.76,-0.95 c 0.81,-0.8 2.08,-1.35 3.45,-1.35 2.12,0 3.57,1.07 3.57,2.84 0,1.17 -0.58,2.12 -1.64,2.5 v 0.07 c 1.27,0.25 2.22,1.22 2.22,2.74 0,2.13 -1.79,3.35 -4.04,3.35 -1.62,0 -2.91,-0.49 -4.04,-1.64 z"
         id="path48" />
      <path
         class="cls-2"
         d="m 177.72,93.88 c 0,-1.84 1.73,-2.74 5.97,-3.08 -0.05,-1.12 -0.59,-2.06 -2.18,-2.06 -1.07,0 -2.12,0.51 -2.88,0.98 l -0.56,-0.95 c 0.85,-0.54 2.23,-1.19 3.67,-1.19 2.25,0 3.35,1.34 3.35,3.38 V 96 h -1.17 l -0.12,-1.12 h -0.05 c -0.9,0.71 -2.08,1.32 -3.23,1.32 -1.54,0 -2.81,-0.86 -2.81,-2.34 z m 5.97,-0.01 v -2.13 c -3.52,0.27 -4.59,0.96 -4.59,2.05 0,0.93 0.85,1.3 1.79,1.3 0.94,0 1.84,-0.44 2.79,-1.22 z"
         id="path49" />
      <path
         class="cls-2"
         d="m 198.25,87.79 h 1.4 v 3.33 h 4.2 v -3.33 h 1.4 v 8.22 h -1.4 v -3.66 h -4.2 v 3.66 h -1.4 z"
         id="path50" />
      <path
         class="cls-2"
         d="m 208.18,93.88 c 0,-1.84 1.73,-2.74 5.97,-3.08 -0.05,-1.12 -0.59,-2.06 -2.18,-2.06 -1.07,0 -2.12,0.51 -2.88,0.98 l -0.56,-0.95 c 0.85,-0.54 2.23,-1.19 3.67,-1.19 2.25,0 3.35,1.34 3.35,3.38 V 96 h -1.17 l -0.12,-1.12 h -0.05 c -0.9,0.71 -2.08,1.32 -3.23,1.32 -1.54,0 -2.81,-0.86 -2.81,-2.34 z m 5.98,-0.01 v -2.13 c -3.52,0.27 -4.59,0.96 -4.59,2.05 0,0.93 0.85,1.3 1.79,1.3 0.94,0 1.84,-0.44 2.79,-1.22 z"
         id="path51" />
      <path
         class="cls-2"
         d="m 217.96,87.79 h 1.39 v 7.09 h 2.06 v -7.09 h 1.29 v 7.09 h 2.06 v -7.09 h 1.39 v 8.22 h -8.19 z"
         id="path52" />
      <path
         class="cls-2"
         d="m 228.27,99.38 0.29,-1.12 c 0.22,0.07 0.49,0.12 0.74,0.12 1.15,0 1.84,-0.73 2.25,-1.74 l 0.24,-0.61 -3.82,-8.24 h 1.42 l 2,4.54 c 0.32,0.73 0.68,1.59 1.02,2.39 h 0.07 c 0.29,-0.78 0.61,-1.64 0.88,-2.39 l 1.78,-4.54 h 1.35 l -3.64,8.9 c -0.61,1.62 -1.61,2.86 -3.49,2.86 -0.39,0 -0.79,-0.07 -1.08,-0.17 z"
         id="path53" />
      <path
         class="cls-2"
         d="m 252.78,88.93 h -3.81 V 87.8 h 5.21 v 8.22 h -1.41 v -7.09 z m -0.56,-3.95 c 0,-0.64 0.47,-1.08 1.12,-1.08 0.65,0 1.12,0.44 1.12,1.08 0,0.64 -0.47,1.08 -1.12,1.08 -0.65,0 -1.12,-0.42 -1.12,-1.08 z"
         id="path54" />
      <path
         class="cls-2"
         d="m 269.51,87.79 h 3.81 c 1.9,0 3.2,0.59 3.2,2.08 0,0.91 -0.56,1.49 -1.44,1.76 v 0.05 c 0.96,0.24 1.79,0.79 1.79,1.98 0,1.62 -1.42,2.35 -3.42,2.35 h -3.94 z m 3.57,3.42 c 1.49,0 2.08,-0.44 2.08,-1.2 0,-0.76 -0.59,-1.1 -1.98,-1.1 h -2.3 v 2.3 z m 0.22,3.69 c 1.49,0 2.18,-0.41 2.18,-1.32 0,-0.83 -0.78,-1.29 -2.27,-1.29 h -2.33 v 2.61 z"
         id="path55" />
      <path
         class="cls-2"
         d="m 279.26,93.88 c 0,-1.84 1.73,-2.74 5.97,-3.08 -0.05,-1.12 -0.59,-2.06 -2.18,-2.06 -1.07,0 -2.12,0.51 -2.88,0.98 l -0.56,-0.95 c 0.85,-0.54 2.23,-1.19 3.67,-1.19 2.25,0 3.35,1.34 3.35,3.38 V 96 h -1.17 l -0.12,-1.12 h -0.05 c -0.9,0.71 -2.08,1.32 -3.23,1.32 -1.54,0 -2.81,-0.86 -2.81,-2.34 z m 5.97,-0.01 v -2.13 c -3.52,0.27 -4.59,0.96 -4.59,2.05 0,0.93 0.85,1.3 1.79,1.3 0.94,0 1.84,-0.44 2.79,-1.22 z"
         id="path56" />
      <path
         class="cls-2"
         d="m 289.04,87.79 h 1.39 v 7.09 h 2.06 v -7.09 h 1.29 v 7.09 h 2.06 v -7.09 h 1.39 v 8.22 h -8.19 z"
         id="path57" />
      <path
         class="cls-2"
         d="m 299.35,99.38 0.29,-1.12 c 0.22,0.07 0.49,0.12 0.74,0.12 1.15,0 1.84,-0.73 2.25,-1.74 l 0.24,-0.61 -3.82,-8.24 h 1.42 l 2,4.54 c 0.32,0.73 0.68,1.59 1.02,2.39 h 0.07 c 0.29,-0.78 0.61,-1.64 0.88,-2.39 l 1.78,-4.54 h 1.35 l -3.64,8.9 c -0.61,1.62 -1.61,2.86 -3.49,2.86 -0.39,0 -0.79,-0.07 -1.08,-0.17 z"
         id="path58" />
      <path
         class="cls-2"
         d="m 319.88,91.92 c 0,-2.76 2.1,-4.33 4.59,-4.33 1.34,0 2.32,0.54 3,1.2 l -0.69,0.9 c -0.68,-0.58 -1.39,-0.93 -2.25,-0.93 -1.9,0 -3.2,1.27 -3.2,3.16 0,1.89 1.29,3.13 3.16,3.13 1.02,0 1.86,-0.46 2.54,-1.03 l 0.63,0.91 c -0.91,0.81 -2.05,1.29 -3.27,1.29 -2.57,0 -4.5,-1.57 -4.5,-4.3 z"
         id="path59" />
      <path
         class="cls-2"
         d="m 330.44,87.79 h 3.81 c 1.9,0 3.2,0.59 3.2,2.08 0,0.91 -0.56,1.49 -1.44,1.76 v 0.05 c 0.96,0.24 1.79,0.79 1.79,1.98 0,1.62 -1.42,2.35 -3.42,2.35 h -3.94 z m 3.57,3.42 c 1.49,0 2.08,-0.44 2.08,-1.2 0,-0.76 -0.59,-1.1 -1.98,-1.1 h -2.3 v 2.3 z m 0.22,3.69 c 1.49,0 2.18,-0.41 2.18,-1.32 0,-0.83 -0.78,-1.29 -2.27,-1.29 h -2.33 v 2.61 z"
         id="path60" />
      <path
         class="cls-2"
         d="m 339.85,91.92 c 0,-2.76 1.89,-4.33 4.06,-4.33 2.17,0 4.06,1.57 4.06,4.33 0,2.76 -1.9,4.3 -4.06,4.3 -2.16,0 -4.06,-1.57 -4.06,-4.3 z m 6.68,0 c 0,-1.89 -1.05,-3.16 -2.62,-3.16 -1.57,0 -2.62,1.27 -2.62,3.16 0,1.89 1.05,3.13 2.62,3.13 1.57,0 2.62,-1.25 2.62,-3.13 z"
         id="path61" />
      <path
         class="cls-2"
         d="m 350.26,91.02 c 0,-5.45 2.06,-6.41 5.26,-6.9 1,-0.13 1.29,-0.2 1.81,-0.46 l 0.29,1.27 c -0.46,0.3 -1.07,0.42 -1.81,0.54 -3.1,0.46 -4.2,0.8 -4.2,5.82 0,2.27 0.9,3.76 2.62,3.76 1.44,0 2.28,-1.25 2.28,-3.11 0,-1.69 -0.81,-2.76 -2.3,-2.76 -0.83,0 -1.76,0.34 -2.62,1.51 l -0.05,-1.05 c 0.76,-1.02 1.88,-1.54 3.03,-1.54 2,0 3.4,1.44 3.4,3.84 0,2.62 -1.59,4.28 -3.72,4.28 -2.52,0 -3.99,-1.98 -3.99,-5.2 z"
         id="path62" />
      <path
         class="cls-2"
         d="m 360.16,91.92 c 0,-2.76 1.89,-4.33 4.06,-4.33 2.17,0 4.06,1.57 4.06,4.33 0,2.76 -1.9,4.3 -4.06,4.3 -2.16,0 -4.06,-1.57 -4.06,-4.3 z m 6.68,0 c 0,-1.89 -1.05,-3.16 -2.62,-3.16 -1.57,0 -2.62,1.27 -2.62,3.16 0,1.89 1.05,3.13 2.62,3.13 1.57,0 2.62,-1.25 2.62,-3.13 z"
         id="path63" />
      <path
         class="cls-2"
         d="m 370.01,95.76 v -0.9 h 8.71 v 0.9 l -0.15,3.16 h -1.2 v -2.91 h -6.01 v 2.91 h -1.22 z m 6.11,-6.83 h -3.01 l -0.32,2.78 c -0.34,3.04 -1.17,3.82 -2.06,3.99 l -0.3,-0.83 c 0.46,-0.24 0.81,-0.79 1.15,-3.44 L 372,87.79 h 5.53 v 8.22 h -1.4 v -7.09 z"
         id="path64" />
      <path
         class="cls-2"
         d="m 380.58,99.38 0.29,-1.12 c 0.22,0.07 0.49,0.12 0.74,0.12 1.15,0 1.84,-0.73 2.25,-1.74 l 0.24,-0.61 -3.82,-8.24 h 1.42 l 2,4.54 c 0.32,0.73 0.68,1.59 1.02,2.39 h 0.07 c 0.29,-0.78 0.61,-1.64 0.88,-2.39 l 1.78,-4.54 h 1.35 l -3.64,8.9 c -0.61,1.62 -1.61,2.86 -3.49,2.86 -0.39,0 -0.79,-0.07 -1.08,-0.17 z"
         id="path65" />
    </g>
    <g
       id="g86">
      <path
         class="cls-2"
         d="m 231.49,103.6 h 6.82 v 1.2 h -5.4 v 3.74 h 4.57 v 1.2 h -4.57 v 4.96 h -1.42 z"
         id="path66" />
      <path
         class="cls-2"
         d="m 240.41,110.6 c 0,-2.76 1.89,-4.33 4.06,-4.33 2.17,0 4.06,1.57 4.06,4.33 0,2.76 -1.9,4.3 -4.06,4.3 -2.16,0 -4.06,-1.57 -4.06,-4.3 z m 6.68,0 c 0,-1.9 -1.05,-3.17 -2.62,-3.17 -1.57,0 -2.62,1.27 -2.62,3.17 0,1.9 1.05,3.13 2.62,3.13 1.57,0 2.62,-1.25 2.62,-3.13 z"
         id="path67" />
      <path
         class="cls-2"
         d="m 252,106.48 h 1.17 l 0.14,1.95 h 0.03 c 0.86,-1.34 2.15,-2.15 3.67,-2.15 0.61,0 1.12,0.08 1.62,0.34 l -0.32,1.2 c -0.58,-0.19 -0.88,-0.27 -1.52,-0.27 -1.24,0 -2.4,0.63 -3.38,2.35 v 4.8 h -1.4 v -8.22 z"
         id="path68" />
      <path
         class="cls-2"
         d="m 270.87,110.6 c 0,-2.76 1.89,-4.33 4.06,-4.33 2.17,0 4.06,1.57 4.06,4.33 0,2.76 -1.9,4.3 -4.06,4.3 -2.16,0 -4.06,-1.57 -4.06,-4.3 z m 6.68,0 c 0,-1.9 -1.05,-3.17 -2.62,-3.17 -1.57,0 -2.62,1.27 -2.62,3.17 0,1.9 1.05,3.13 2.62,3.13 1.57,0 2.62,-1.25 2.62,-3.13 z"
         id="path69" />
      <path
         class="cls-2"
         d="m 281.31,111.59 v -5.11 h 1.4 v 4.92 c 0,1.54 0.54,2.28 1.9,2.28 0.95,0 1.64,-0.44 2.56,-1.51 v -5.7 h 1.4 v 8.22 h -1.17 l -0.12,-1.44 h -0.07 c -0.83,0.96 -1.79,1.64 -3.06,1.64 -1.95,0 -2.84,-1.15 -2.84,-3.32 z"
         id="path70" />
      <path
         class="cls-2"
         d="m 292.62,106.48 h 1.17 l 0.14,1.95 h 0.03 c 0.86,-1.34 2.15,-2.15 3.67,-2.15 0.61,0 1.12,0.08 1.62,0.34 l -0.32,1.2 c -0.58,-0.19 -0.88,-0.27 -1.52,-0.27 -1.24,0 -2.4,0.63 -3.38,2.35 v 4.8 h -1.4 v -8.22 z"
         id="path71" />
      <path
         class="cls-2"
         d="m 312.21,106.56 2.39,-0.08 h 4.79 v 1.13 h -7.17 v -1.05 z m 2.36,-0.78 c 0,-2 1.05,-3.33 3.32,-3.33 0.81,0 1.59,0.15 2.37,0.47 l -0.32,1.05 c -0.68,-0.29 -1.2,-0.39 -1.91,-0.39 -1.47,0 -2.06,0.83 -2.06,2.15 v 8.97 h -1.39 v -8.92 z"
         id="path72" />
      <path
         class="cls-2"
         d="m 323.08,106.48 h 1.17 l 0.14,1.95 h 0.03 c 0.86,-1.34 2.15,-2.15 3.67,-2.15 0.61,0 1.12,0.08 1.62,0.34 l -0.32,1.2 c -0.58,-0.19 -0.88,-0.27 -1.52,-0.27 -1.24,0 -2.4,0.63 -3.38,2.35 v 4.8 h -1.4 v -8.22 z"
         id="path73" />
      <path
         class="cls-2"
         d="m 331.93,110.57 c 0,-2.67 2,-4.3 4.2,-4.3 2.37,0 3.76,1.54 3.76,3.86 0,0.32 -0.03,0.63 -0.07,0.85 h -6.96 v -1.08 h 6.13 l -0.36,0.39 c 0,-1.95 -0.96,-2.91 -2.47,-2.91 -1.51,0 -2.84,1.15 -2.84,3.2 0,2.05 1.39,3.22 3.22,3.22 0.98,0 1.76,-0.3 2.5,-0.78 l 0.51,0.91 c -0.81,0.54 -1.86,0.98 -3.18,0.98 -2.47,0 -4.43,-1.59 -4.43,-4.33 z"
         id="path74" />
      <path
         class="cls-2"
         d="m 342.08,110.57 c 0,-2.67 2,-4.3 4.2,-4.3 2.37,0 3.76,1.54 3.76,3.86 0,0.32 -0.03,0.63 -0.07,0.85 h -6.96 v -1.08 h 6.13 l -0.36,0.39 c 0,-1.95 -0.96,-2.91 -2.47,-2.91 -1.51,0 -2.84,1.15 -2.84,3.2 0,2.05 1.39,3.22 3.22,3.22 0.98,0 1.76,-0.3 2.5,-0.78 l 0.51,0.91 c -0.81,0.54 -1.86,0.98 -3.18,0.98 -2.47,0 -4.43,-1.59 -4.43,-4.33 z"
         id="path75" />
      <path
         class="cls-2"
         d="m 352.1,110.6 c 0,-2.67 1.78,-4.33 3.72,-4.33 0.98,0 1.74,0.39 2.47,1.05 h 0.03 l -0.07,-1.51 v -3.16 h 1.4 v 12.05 h -1.15 l -0.12,-1.08 h -0.05 c -0.68,0.69 -1.66,1.29 -2.69,1.29 -2.13,0 -3.55,-1.56 -3.55,-4.3 z m 6.16,1.9 v -4.1 c -0.74,-0.69 -1.44,-0.95 -2.15,-0.95 -1.42,0 -2.57,1.25 -2.57,3.13 0,1.88 0.91,3.13 2.42,3.13 0.81,0 1.57,-0.41 2.3,-1.22 z"
         id="path76" />
      <path
         class="cls-2"
         d="m 362.26,110.6 c 0,-2.76 1.89,-4.33 4.06,-4.33 2.17,0 4.06,1.57 4.06,4.33 0,2.76 -1.9,4.3 -4.06,4.3 -2.16,0 -4.06,-1.57 -4.06,-4.3 z m 6.68,0 c 0,-1.9 -1.05,-3.17 -2.62,-3.17 -1.57,0 -2.62,1.27 -2.62,3.17 0,1.9 1.05,3.13 2.62,3.13 1.57,0 2.62,-1.25 2.62,-3.13 z"
         id="path77" />
      <path
         class="cls-2"
         d="m 372.38,106.48 h 1.12 l 0.12,1.08 h 0.03 c 0.42,-0.76 0.93,-1.29 1.88,-1.29 0.81,0 1.32,0.47 1.56,1.42 0.47,-0.88 0.98,-1.42 1.93,-1.42 1.15,0 1.83,0.9 1.83,2.54 v 5.89 h -1.39 v -5.79 c 0,-0.95 -0.27,-1.44 -0.88,-1.44 -0.58,0 -0.88,0.42 -1.32,1.27 v 5.96 h -1.29 v -5.79 c 0,-0.95 -0.24,-1.44 -0.85,-1.44 -0.58,0 -0.95,0.42 -1.35,1.27 v 5.96 h -1.39 z"
         id="path78" />
      <path
         class="cls-2"
         d="m 393.06,112.57 c 0,-1.84 1.73,-2.74 5.97,-3.08 -0.05,-1.12 -0.59,-2.06 -2.18,-2.06 -1.07,0 -2.12,0.51 -2.88,0.98 l -0.56,-0.95 c 0.85,-0.54 2.23,-1.18 3.67,-1.18 2.25,0 3.35,1.34 3.35,3.38 v 5.04 h -1.17 l -0.12,-1.12 h -0.05 c -0.9,0.71 -2.08,1.32 -3.23,1.32 -1.54,0 -2.81,-0.86 -2.81,-2.33 z m 5.97,-0.02 v -2.13 c -3.52,0.27 -4.59,0.96 -4.59,2.05 0,0.93 0.85,1.3 1.79,1.3 0.94,0 1.84,-0.44 2.79,-1.22 z"
         id="path79" />
      <path
         class="cls-2"
         d="m 403.43,106.48 h 1.15 l 0.12,1.39 h 0.07 c 0.86,-0.9 1.81,-1.59 3.1,-1.59 1.95,0 2.84,1.15 2.84,3.32 v 5.11 h -1.41 v -4.92 c 0,-1.56 -0.54,-2.29 -1.88,-2.29 -0.98,0 -1.64,0.49 -2.59,1.47 v 5.74 h -1.4 v -8.22 z"
         id="path80" />
      <path
         class="cls-2"
         d="m 413.03,110.6 c 0,-2.67 1.78,-4.33 3.72,-4.33 0.98,0 1.74,0.39 2.47,1.05 h 0.03 l -0.07,-1.51 v -3.16 h 1.4 v 12.05 h -1.15 l -0.12,-1.08 h -0.05 c -0.68,0.69 -1.66,1.29 -2.69,1.29 -2.13,0 -3.55,-1.56 -3.55,-4.3 z m 6.16,1.9 v -4.1 c -0.74,-0.69 -1.44,-0.95 -2.15,-0.95 -1.42,0 -2.57,1.25 -2.57,3.13 0,1.88 0.91,3.13 2.42,3.13 0.81,0 1.57,-0.41 2.3,-1.22 z"
         id="path81" />
      <path
         class="cls-2"
         d="m 433.46,118.07 0.29,-1.12 c 0.22,0.07 0.49,0.12 0.74,0.12 1.15,0 1.84,-0.73 2.25,-1.74 l 0.24,-0.61 -3.82,-8.24 h 1.42 l 2,4.54 c 0.32,0.73 0.68,1.59 1.02,2.39 h 0.07 c 0.29,-0.78 0.61,-1.64 0.88,-2.39 l 1.78,-4.54 h 1.35 l -3.64,8.9 c -0.61,1.62 -1.61,2.86 -3.49,2.86 -0.39,0 -0.79,-0.07 -1.08,-0.17 z"
         id="path82" />
      <path
         class="cls-2"
         d="m 443.49,110.6 c 0,-2.76 1.89,-4.33 4.06,-4.33 2.17,0 4.06,1.57 4.06,4.33 0,2.76 -1.9,4.3 -4.06,4.3 -2.16,0 -4.06,-1.57 -4.06,-4.3 z m 6.68,0 c 0,-1.9 -1.05,-3.17 -2.62,-3.17 -1.57,0 -2.62,1.27 -2.62,3.17 0,1.9 1.05,3.13 2.62,3.13 1.57,0 2.62,-1.25 2.62,-3.13 z"
         id="path83" />
      <path
         class="cls-2"
         d="m 453.93,111.59 v -5.11 h 1.41 v 4.92 c 0,1.54 0.54,2.28 1.89,2.28 0.95,0 1.64,-0.44 2.56,-1.51 v -5.7 h 1.4 v 8.22 h -1.17 l -0.12,-1.44 h -0.07 c -0.83,0.96 -1.79,1.64 -3.06,1.64 -1.95,0 -2.84,-1.15 -2.84,-3.32 z"
         id="path84" />
      <path
         class="cls-2"
         d="m 465.24,106.48 h 1.17 l 0.14,1.95 h 0.03 c 0.86,-1.34 2.15,-2.15 3.67,-2.15 0.61,0 1.12,0.08 1.62,0.34 l -0.32,1.2 c -0.58,-0.19 -0.88,-0.27 -1.52,-0.27 -1.24,0 -2.4,0.63 -3.38,2.35 v 4.8 h -1.4 v -8.22 z"
         id="path85" />
      <path
         class="cls-2"
         d="m 474.14,113.62 0.64,-0.93 c 0.95,0.68 2.06,1.12 3.57,1.12 1.39,0 2.06,-0.58 2.06,-1.27 0,-0.62 -0.32,-1.07 -2.56,-1.52 -2.15,-0.44 -3.21,-1.17 -3.21,-2.4 0,-1.32 1.17,-2.33 3.42,-2.33 1.25,0 2.5,0.49 3.32,1.05 l -0.68,0.9 c -0.76,-0.53 -1.71,-0.86 -2.76,-0.86 -1.39,0 -1.9,0.56 -1.9,1.18 0,0.71 0.71,1.02 2.4,1.37 2.72,0.59 3.38,1.27 3.38,2.54 0,1.34 -1.3,2.45 -3.66,2.45 -1.61,0 -3.05,-0.59 -4.04,-1.29 z"
         id="path86" />
    </g>
  </g>
</svg>
